<svg width="1600" height="960" viewBox="0 0 1600 960" fill="none" xmlns="http://www.w3.org/2000/svg" role="img" aria-labelledby="title desc">
  <title id="title">GuardWeave Architecture Diagram</title>
  <desc id="desc">A clean architecture diagram for GuardWeave showing the system prompt binder, pre gate, prompt wrapping, base model, post verifier, and final output.</desc>
  <defs>
    <filter id="shadow" x="-20%" y="-20%" width="140%" height="140%">
      <feDropShadow dx="0" dy="10" stdDeviation="14" flood-color="#0f172a" flood-opacity="0.10"/>
    </filter>
    <marker id="arrow" viewBox="0 0 12 12" refX="11" refY="6" markerWidth="10" markerHeight="10" orient="auto-start-reverse">
      <path d="M1 1L11 6L1 11V1Z" fill="#64748B"/>
    </marker>
    <style>
      .title { font: 700 46px Arial, Helvetica, sans-serif; fill: #0F172A; }
      .subtitle { font: 500 24px Arial, Helvetica, sans-serif; fill: #334155; }
      .section { font: 700 22px Arial, Helvetica, sans-serif; fill: #0F172A; }
      .sectionInv { font: 700 22px Arial, Helvetica, sans-serif; fill: #FFFFFF; }
      .body { font: 400 18px Arial, Helvetica, sans-serif; fill: #0F172A; }
      .bodyInv { font: 500 18px Arial, Helvetica, sans-serif; fill: #FFFFFF; }
      .small { font: 400 14px Arial, Helvetica, sans-serif; fill: #475569; }
      .legend { font: 500 16px Arial, Helvetica, sans-serif; fill: #0F172A; }
      .panel { fill: #FFFFFF; stroke: #94A3B8; stroke-width: 1.5; }
      .panelSoft { fill: #F8FAFC; stroke: #CBD5E1; stroke-width: 1.5; }
      .header { fill: #0F766E; }
      .dark { fill: #0B3A38; }
      .chip { fill: #F8FAFC; stroke: #CBD5E1; stroke-width: 1.2; }
      .chipAccent { fill: #0F766E; stroke: #0F766E; stroke-width: 1.2; }
      .line { stroke: #64748B; stroke-width: 3; fill: none; marker-end: url(#arrow); }
      .lineSoft { stroke: #94A3B8; stroke-width: 2.5; fill: none; marker-end: url(#arrow); }
      .rule { stroke: #CBD5E1; stroke-width: 1.5; }
    </style>
  </defs>

  <rect x="0" y="0" width="1600" height="960" fill="#FFFFFF"/>

  <g transform="translate(570 52)">
    <circle cx="30" cy="30" r="30" fill="#0F766E" opacity="0.12"/>
    <circle cx="30" cy="30" r="22" fill="#0F766E"/>
    <path d="M21 20H39V40H21V20Z" fill="#FFFFFF" opacity="0.18"/>
    <path d="M30 15V45M15 30H45" stroke="#FFFFFF" stroke-width="5" stroke-linecap="round"/>
    <text x="84" y="40" class="title">Guard<tspan fill="#0F766E">Weave</tspan></text>
    <text x="-6" y="92" class="subtitle">Prompt-Injection Defense Pipeline</text>
  </g>

  <g transform="translate(60 150)" filter="url(#shadow)">
    <rect x="0" y="0" width="320" height="178" rx="14" class="panelSoft"/>
    <rect x="18" y="18" width="42" height="42" rx="10" class="header"/>
    <path d="M28 29H49M28 38H44M28 47H47M28 56H39" stroke="#FFFFFF" stroke-width="3.2" stroke-linecap="round"/>
    <text x="80" y="44" class="section">System Prompt Binder</text>
    <line x1="80" y1="56" x2="296" y2="56" class="rule"/>
    <text x="44" y="96" class="body">• Regex Generation Cache</text>
    <text x="44" y="130" class="body">• Judge-Derived Regex Profile</text>
    <text x="44" y="164" class="body">• Refresh on Prompt Change</text>
  </g>

  <g transform="translate(458 376)" filter="url(#shadow)">
    <rect x="0" y="0" width="344" height="106" rx="14" class="panelSoft"/>
    <text x="34" y="34" class="section">Tiered Defense Injection</text>
    <text x="34" y="66" class="body">• Input Wrapping</text>
    <text x="34" y="94" class="body">• Refusal on High Risk</text>
  </g>

  <g transform="translate(40 560)" filter="url(#shadow)">
    <rect x="0" y="0" width="140" height="76" rx="12" class="panel"/>
    <text x="70" y="47" text-anchor="middle" class="section">User Input</text>
  </g>

  <g transform="translate(220 450)" filter="url(#shadow)">
    <rect x="0" y="0" width="250" height="302" rx="14" class="panel"/>
    <rect x="0" y="0" width="250" height="46" rx="14" class="header"/>
    <text x="125" y="30" text-anchor="middle" class="sectionInv">Pre Gate</text>

    <rect x="18" y="60" width="214" height="42" rx="8" class="chip"/>
    <text x="40" y="87" class="body">Risk Score</text>

    <rect x="18" y="112" width="214" height="42" rx="8" class="chip"/>
    <text x="40" y="139" class="body">Heuristic Checks</text>

    <rect x="18" y="164" width="214" height="42" rx="8" class="chip"/>
    <text x="40" y="191" class="body">Local Judge</text>
    <text x="163" y="191" class="small">(Optional)</text>

    <rect x="18" y="216" width="214" height="42" rx="8" class="chip"/>
    <text x="40" y="243" class="body">Remote Judge</text>
    <text x="177" y="243" class="small">(Optional)</text>

    <rect x="0" y="264" width="250" height="38" rx="0" class="header"/>
    <text x="125" y="289" text-anchor="middle" class="bodyInv">Stage: Pre / Post / Both</text>
  </g>

  <g transform="translate(520 556)" filter="url(#shadow)">
    <rect x="0" y="0" width="180" height="86" rx="12" class="chipAccent"/>
    <text x="90" y="35" text-anchor="middle" class="sectionInv" style="font-size: 18px;">Wrapped Prompt</text>
    <text x="90" y="62" text-anchor="middle" class="sectionInv" style="font-size: 18px;">Tiered Instruction</text>
  </g>

  <g transform="translate(740 430)" filter="url(#shadow)">
    <rect x="0" y="0" width="320" height="342" rx="14" class="panel"/>
    <text x="160" y="40" text-anchor="middle" class="section">Base Model</text>
    <text x="160" y="66" text-anchor="middle" class="small">
      <tspan x="160" dy="0">Receives wrapped prompt</tspan>
      <tspan x="160" dy="16">and tiered instruction</tspan>
    </text>

    <rect x="28" y="92" width="264" height="220" rx="14" class="dark"/>

    <rect x="46" y="114" width="228" height="40" rx="8" class="chipAccent"/>
    <text x="160" y="140" text-anchor="middle" class="bodyInv">Hosted APIs</text>

    <rect x="46" y="164" width="228" height="40" rx="8" class="chipAccent"/>
    <text x="160" y="184" text-anchor="middle" class="bodyInv" style="font-size: 16px;">
      <tspan x="160" dy="0">OpenAI-Compatible</tspan>
      <tspan x="160" dy="16">Local Wrapper</tspan>
    </text>

    <rect x="46" y="214" width="228" height="40" rx="8" class="chipAccent"/>
    <text x="160" y="240" text-anchor="middle" class="bodyInv">Custom SDK</text>

    <rect x="46" y="264" width="228" height="40" rx="8" class="chipAccent"/>
    <text x="160" y="290" text-anchor="middle" class="bodyInv">Hugging Face Models</text>
  </g>

  <g transform="translate(1120 450)" filter="url(#shadow)">
    <rect x="0" y="0" width="250" height="302" rx="14" class="panel"/>
    <rect x="0" y="0" width="250" height="46" rx="14" class="header"/>
    <text x="125" y="30" text-anchor="middle" class="sectionInv">Post Verifier</text>

    <rect x="18" y="60" width="214" height="42" rx="8" class="chip"/>
    <text x="40" y="87" class="body">Output Heuristics</text>

    <rect x="18" y="112" width="214" height="42" rx="8" class="chip"/>
    <text x="40" y="139" class="body">Output Judge</text>

    <rect x="18" y="164" width="214" height="42" rx="8" class="chip"/>
    <text x="40" y="191" class="body">Policy Leakage Check</text>

    <rect x="18" y="216" width="214" height="42" rx="8" class="chip"/>
    <text x="40" y="243" class="body">Encoded Leakage Check</text>

    <rect x="18" y="264" width="214" height="38" rx="8" class="chipAccent"/>
    <text x="125" y="289" text-anchor="middle" class="bodyInv">Block / Allow / Refuse</text>
  </g>

  <g transform="translate(1410 560)" filter="url(#shadow)">
    <rect x="0" y="0" width="150" height="76" rx="12" class="panel"/>
    <text x="75" y="47" text-anchor="middle" class="section">Final Output</text>
  </g>

  <path d="M180 598H220" class="line"/>
  <path d="M470 598H520" class="line"/>
  <path d="M700 598H740" class="line"/>
  <path d="M1060 598H1120" class="line"/>
  <path d="M1370 598H1410" class="line"/>

  <path d="M630 482V548" class="lineSoft"/>
  <path d="M560 482V548" class="lineSoft"/>
  <path d="M380 238C470 238 512 238 560 376" class="lineSoft"/>

  <g transform="translate(60 844)">
    <line x1="0" y1="0" x2="820" y2="0" class="rule"/>
    <text x="0" y="34" class="legend">• Heuristic-Only Path = No Extra Model/API Calls</text>
    <text x="0" y="66" class="legend">• Local Judge = Lightweight Local Classifier</text>
    <text x="0" y="98" class="legend">• Remote Judge = Strongest Blocking (API Latency)</text>
  </g>
</svg>
